<svg id="svg" version="1.1" xmlns="http://www.w3.org/2000/svg" xmlns:xlink="http://www.w3.org/1999/xlink" width="400" height="400" viewBox="0, 0, 400,400"><g id="svgg"><path id="path0" d="M187.367 87.862 L 182.906 105.723 181.703 105.514 C 181.041 105.398,171.156 102.962,159.735 100.100 C 147.630 97.067,138.857 95.022,138.698 95.198 C 138.420 95.507,133.000 116.971,133.000 117.764 C 133.000 118.060,135.036 118.670,139.250 119.639 C 152.451 122.671,155.648 124.259,157.863 128.884 C 159.590 132.489,159.581 132.549,153.886 155.333 C 149.121 174.399,148.806 175.850,149.381 176.073 C 150.197 176.388,150.178 176.651,149.355 176.436 C 148.835 176.300,148.644 176.516,148.371 177.550 C 148.184 178.256,144.946 191.184,141.174 206.279 C 133.974 235.099,133.830 235.571,131.664 237.425 C 128.769 239.903,127.192 239.872,116.500 237.131 C 112.467 236.097,108.955 235.232,108.697 235.209 C 108.210 235.165,97.402 259.513,97.753 259.864 C 97.851 259.962,107.721 262.507,119.687 265.520 C 131.653 268.533,141.482 271.037,141.529 271.085 C 141.577 271.132,139.602 279.251,137.141 289.127 C 134.680 299.003,132.667 307.196,132.667 307.334 C 132.667 307.600,154.067 313.044,154.279 312.832 C 154.348 312.763,156.397 304.739,158.833 295.000 C 161.269 285.261,163.337 277.219,163.428 277.127 C 163.519 277.036,165.823 277.561,168.547 278.294 C 171.271 279.027,175.069 280.021,176.987 280.503 C 178.904 280.986,180.574 281.443,180.697 281.519 C 180.821 281.595,178.922 289.647,176.479 299.412 C 174.036 309.177,172.141 317.259,172.269 317.372 C 172.613 317.678,193.609 322.840,193.765 322.657 C 193.839 322.571,195.895 314.475,198.333 304.667 C 200.772 294.858,202.821 286.769,202.887 286.691 C 202.953 286.613,205.143 286.893,207.753 287.315 C 249.850 294.109,270.495 285.227,280.481 256.027 C 288.243 233.328,282.630 216.878,263.258 205.551 C 260.003 203.647,260.007 203.681,263.000 202.831 C 287.579 195.858,297.034 162.325,280.096 142.196 C 273.454 134.302,263.925 128.632,245.333 121.509 C 244.495 121.188,244.198 120.889,244.277 120.448 C 244.337 120.110,246.330 112.051,248.705 102.540 C 251.081 93.028,252.953 85.175,252.867 85.089 C 252.488 84.711,231.541 79.663,231.339 79.902 C 231.215 80.047,229.197 87.942,226.853 97.446 C 222.766 114.018,222.562 114.717,221.879 114.538 C 221.487 114.436,217.529 113.493,213.083 112.443 C 206.798 110.959,205.002 110.419,205.009 110.017 C 205.015 109.733,206.949 101.802,209.308 92.393 C 212.192 80.894,213.472 75.242,213.216 75.153 C 212.287 74.830,192.639 70.000,192.255 70.000 C 191.967 70.000,190.365 75.855,187.367 87.862 M206.500 138.033 C 237.147 145.036,248.936 155.340,244.790 171.500 C 241.753 183.333,230.053 188.167,211.000 185.458 C 205.689 184.703,188.690 180.801,188.088 180.199 C 187.991 180.102,198.432 137.887,198.836 136.742 C 198.924 136.490,199.294 136.387,199.743 136.490 C 200.159 136.585,203.200 137.279,206.500 138.033 M190.019 203.976 C 227.821 212.665,242.249 223.919,238.171 241.536 C 234.002 259.550,212.625 262.590,171.626 251.000 L 170.419 250.659 176.458 226.496 C 179.779 213.207,182.581 202.333,182.684 202.333 C 182.787 202.333,186.088 203.073,190.019 203.976 " stroke="none" fill="#fcfbfb" fill-rule="evenodd"></path><path id="path1" d="M186.667 0.215 C 93.165 6.813,16.866 76.550,2.366 168.667 C -15.348 281.207,64.150 385.878,177.167 398.817 C 270.124 409.459,358.628 353.896,388.989 265.833 C 433.767 135.952,338.704 1.135,201.667 0.177 C 194.425 0.127,187.675 0.143,186.667 0.215 M202.938 72.308 C 208.679 73.751,213.475 75.031,213.597 75.153 C 213.719 75.274,211.853 83.239,209.452 92.852 L 205.085 110.331 206.293 110.633 C 214.032 112.569,222.137 114.324,222.331 114.106 C 222.465 113.956,224.493 106.108,226.837 96.667 C 229.182 87.225,231.118 79.472,231.140 79.438 C 231.461 78.936,253.155 85.002,253.094 85.576 C 253.032 86.157,244.946 118.816,244.479 120.370 C 244.352 120.794,245.218 121.245,248.576 122.508 C 276.368 132.958,288.437 145.813,288.471 165.000 C 288.505 184.297,279.585 197.847,263.557 202.844 L 260.643 203.753 263.311 205.340 C 282.894 216.987,288.468 233.393,280.620 256.283 C 274.138 275.189,262.816 285.339,244.229 288.908 C 236.719 290.350,218.769 289.596,206.689 287.330 C 204.776 286.971,203.140 286.748,203.053 286.836 C 202.966 286.923,200.911 295.028,198.486 304.848 C 196.060 314.667,194.001 322.777,193.909 322.869 C 193.817 322.960,188.801 321.796,182.762 320.282 L 171.782 317.528 176.237 299.721 C 178.686 289.926,180.627 281.849,180.549 281.771 C 180.429 281.651,174.586 280.080,165.738 277.789 C 164.586 277.490,163.582 277.307,163.508 277.381 C 163.434 277.455,161.410 285.387,159.010 295.008 C 156.611 304.628,154.587 312.672,154.514 312.882 C 154.260 313.609,132.487 307.905,132.565 307.132 C 132.602 306.779,134.593 298.629,136.992 289.021 C 139.390 279.413,141.235 271.447,141.093 271.318 C 140.770 271.028,130.507 268.379,111.750 263.745 C 103.821 261.787,97.333 260.073,97.333 259.937 C 97.333 259.606,107.917 235.305,108.172 235.050 C 108.282 234.940,111.781 235.724,115.949 236.791 C 127.990 239.875,130.568 239.642,133.301 235.218 C 134.688 232.975,158.748 135.506,158.583 132.798 C 158.156 125.755,154.823 123.526,139.203 119.838 C 135.740 119.020,132.833 118.278,132.743 118.188 C 132.567 118.012,138.327 94.667,138.546 94.667 C 138.618 94.667,145.613 96.412,154.089 98.545 C 162.565 100.678,172.462 103.131,176.083 103.997 L 182.667 105.572 182.984 104.369 C 183.159 103.708,185.041 96.192,187.167 87.667 C 192.009 68.246,191.621 69.665,192.096 69.676 C 192.318 69.681,197.197 70.865,202.938 72.308 M193.671 158.317 C 190.687 170.255,188.303 180.069,188.373 180.125 C 188.591 180.298,199.001 182.936,202.333 183.661 C 229.461 189.568,244.240 183.817,245.236 166.968 C 246.079 152.699,230.537 142.275,200.298 136.827 L 199.096 136.611 193.671 158.317 M182.343 203.637 C 181.281 207.597,170.696 250.474,170.764 250.542 C 171.014 250.792,187.591 254.797,191.833 255.633 C 218.350 260.855,234.168 256.215,237.796 242.152 C 242.424 224.213,228.390 213.124,189.582 204.057 L 182.663 202.441 182.343 203.637 " stroke="none" fill="#f4941c" fill-rule="evenodd"></path><path id="path2" d="M158.744 134.000 C 158.744 134.642,158.813 134.904,158.896 134.583 C 158.980 134.262,158.980 133.737,158.896 133.417 C 158.813 133.096,158.744 133.358,158.744 134.000 M207.750 257.896 C 208.071 257.980,208.596 257.980,208.917 257.896 C 209.237 257.813,208.975 257.744,208.333 257.744 C 207.692 257.744,207.429 257.813,207.750 257.896 " stroke="none" fill="#fcbe74" fill-rule="evenodd"></path><path id="path3" d="M239.500 152.333 C 240.216 153.067,240.877 153.667,240.969 153.667 C 241.060 153.667,240.549 153.067,239.833 152.333 C 239.117 151.600,238.456 151.000,238.365 151.000 C 238.273 151.000,238.784 151.600,239.500 152.333 M148.486 176.356 C 148.365 176.551,148.357 176.801,148.467 176.911 C 148.577 177.021,148.667 176.919,148.667 176.683 C 148.667 176.420,148.922 176.322,149.334 176.430 C 149.701 176.526,149.917 176.468,149.814 176.302 C 149.559 175.889,148.755 175.921,148.486 176.356 M239.812 180.083 L 238.833 181.167 239.917 180.188 C 240.512 179.649,241.000 179.162,241.000 179.104 C 241.000 178.847,240.725 179.074,239.812 180.083 M219.250 186.244 C 220.029 186.314,221.304 186.314,222.083 186.244 C 222.862 186.174,222.225 186.116,220.667 186.116 C 219.108 186.116,218.471 186.174,219.250 186.244 " stroke="none" fill="#fccc96" fill-rule="evenodd"></path><path id="path4" d="M277.653 139.417 C 278.470 140.287,279.183 141.000,279.236 141.000 C 279.486 141.000,279.222 140.701,277.750 139.319 L 276.167 137.833 277.653 139.417 M210.083 257.905 C 210.588 257.982,211.412 257.982,211.917 257.905 C 212.421 257.829,212.008 257.767,211.000 257.767 C 209.992 257.767,209.579 257.829,210.083 257.905 " stroke="none" fill="#fca847" fill-rule="evenodd"></path></g></svg>