<?xml version="1.0" standalone="no"?>
<!DOCTYPE svg PUBLIC "-//W3C//DTD SVG 20010904//EN"
 "http://www.w3.org/TR/2001/REC-SVG-20010904/DTD/svg10.dtd">
<svg version="1.0" xmlns="http://www.w3.org/2000/svg"
 width="400.000000pt" height="400.000000pt" viewBox="0 0 400.000000 400.000000"
 preserveAspectRatio="xMidYMid meet">
<metadata>
Created by potrace 1.14, written by Peter Selinger 2001-2017
</metadata>
<g transform="translate(0.000000,400.000000) scale(0.100000,-0.100000)"
fill="#000000" stroke="none">
<path d="M1787 3984 c-186 -22 -356 -64 -527 -131 -85 -33 -240 -110 -262
-130 -10 -9 -18 -13 -18 -10 0 3 -37 -19 -82 -50 -74 -50 -109 -76 -198 -148
-58 -48 -201 -197 -258 -270 -34 -44 -67 -86 -73 -93 -24 -29 -111 -176 -154
-260 -79 -157 -158 -393 -179 -537 -4 -23 -9 -52 -11 -65 -27 -138 -25 -457 5
-610 6 -30 13 -68 16 -85 2 -16 14 -64 25 -105 12 -41 22 -79 23 -85 2 -5 6
-17 9 -25 4 -8 14 -37 23 -65 24 -74 118 -269 171 -355 183 -297 451 -551 748
-712 515 -278 1123 -320 1661 -115 139 53 376 179 446 236 7 6 49 39 93 73 65
50 237 215 280 270 72 89 115 148 115 156 0 6 4 12 8 14 23 9 142 225 197 358
49 116 103 301 121 414 3 21 8 48 10 60 9 48 18 188 18 291 0 149 -9 241 -39
387 -21 103 -30 141 -50 208 -1 3 -5 12 -8 20 -4 8 -14 38 -22 65 -27 82 -149
324 -210 415 -111 165 -235 303 -382 427 -70 59 -110 88 -253 183 -66 44 -284
147 -330 156 -16 4 -30 10 -30 14 0 4 -12 10 -27 13 -16 3 -68 17 -118 31
-221 64 -508 88 -738 60z"/>
</g>
</svg>
