<?xml version="1.0" standalone="yes"?>
<svg xmlns="http://www.w3.org/2000/svg" width="512" height="512">
<path style="fill:#010101; stroke:none;" d="M0 0L0 512L512 512L512 0L0 0z"/>
<path style="fill:#8f8f8f; stroke:none;" d="M422 305L423 305L424 305C431.056 317.214 454.361 314.859 465.116 311.37C489.834 303.352 500.722 271.401 487.829 249.13C477.076 230.557 454.652 222.585 434.412 229.676C414.998 236.477 398.111 263.964 409 284C383.959 291.918 358.826 309.717 335.789 322.365C314.112 334.267 287.263 343.477 268 359C259.589 338.313 226.535 336.351 209.884 346.535C205.456 349.244 196.497 362.428 192.195 361.993C187.033 361.471 180.765 356.617 176.35 354.075C167.588 349.031 158.442 344.522 149.4 340C129.472 330.034 109.868 319.171 90.2855 308.535C81.0264 303.507 69.4584 299.952 61.8295 292.461C49.2521 280.11 43.0999 257.236 47.4599 240.171C49.2665 233.099 54.9863 225.864 62.9105 227.261C70.0473 228.518 77.3428 234.371 83.8002 237.6C100.315 245.857 116.672 254.573 132.997 263.214C152.951 273.775 172.906 284.359 192.829 294.986C201.834 299.789 213.689 308.238 224 308.946C241.834 310.171 262.281 294.336 277.385 286.076C313.663 266.236 350.819 247.288 387.8 228.8C407.284 219.06 426.317 208.54 445.8 198.8C453.71 194.846 467.215 190.561 472.891 183.695C476.661 179.136 474.103 173.948 473 169C459.006 164.639 445.735 156.108 432.394 150.019C404.213 137.155 375.916 124.261 348.199 110.403C330.712 101.659 308.784 86.6526 289.005 85.0833C277.08 84.1372 263.269 93.6714 253 98.8009L177 136.801C142.322 154.123 107.483 171.062 72.8009 188.403C55.7123 196.947 35.5053 203.987 26.0741 221.648C10.9063 250.051 22.0388 294.427 46 315.204C54.7656 322.804 66.6295 326.333 76.588 332.056C101.296 346.254 127.316 358.855 152.801 371.597C162.379 376.386 182.891 382.811 189.528 391.213C192.536 395.021 193.115 402.064 195.616 406.588C201.495 417.226 213.733 425.662 226 426.921C240.074 428.366 256.406 424.638 265.88 413.292C272.825 404.972 272.21 391.592 279.157 384.398C284.749 378.608 294.482 375.939 301.356 371.944C320.678 360.719 340.587 350.316 360.204 339.616C375.641 331.195 391.56 323.561 406.644 314.519C411.418 311.656 419.146 309.94 422 305z"/>
<path style="fill:#ffffff; stroke:none;" d="M270 88L271 89L270 88M307 88L308 89L307 88M266 90L267 91L266 90M311 90L312 91L311 90M262 92L263 93L262 92M258 94L259 95L258 94M254 96L255 97L254 96M250 98L251 99L250 98M327 98L328 99L327 98M246 100L247 101L246 100M242 102L243 103L242 102M335 102L336 103L335 102M238 104L239 105L238 104M339 104L340 105L339 104M234 106L235 107L234 106M343 106L344 107L343 106M230 108L231 109L230 108M347 108L348 109L347 108M226 110L227 111L226 110M351 110L352 111L351 110M222 112L223 113L222 112M355 112L356 113L355 112M218 114L219 115L218 114M359 114L360 115L359 114M214 116L215 117L214 116M210 118L211 119L210 118M206 120L207 121L206 120M202 122L203 123L202 122M377 122L378 123L377 122M198 124L199 125L198 124M381 124L382 125L381 124M194 126L195 127L194 126M385 126L386 127L385 126M190 128L191 129L190 128M389 128L390 129L389 128M186 130L187 131L186 130M393 130L394 131L393 130M182 132L183 133L182 132M178 134L179 135L178 134M174 136L175 137L174 136M411 138L412 139L411 138M415 140L416 141L415 140M419 142L420 143L419 142M423 144L424 145L423 144M441 152L442 153L441 152M445 154L446 155L445 154M449 156L450 157L449 156M453 158L454 159L453 158M457 160L458 161L457 160M473 168L474 169L473 168M473 185L474 186L473 185M463 191L464 192L463 191M459 193L460 194L459 193M455 195L456 196L455 195M451 197L452 198L451 197M447 199L448 200L447 199M443 201L444 202L443 201M42 202L43 203L42 202M439 203L440 204L439 203M38 204L39 205L38 204M435 205L436 206L435 205M36 206L37 207L36 206M431 207L432 208L431 207M34 208L35 209L34 208M32 210L33 211L32 210M30 212L31 213L30 212M28 214L29 215L28 214M417 215L418 216L417 215M413 217L414 218L413 217M409 219L410 220L409 219M405 221L406 222L405 221M401 223L402 224L401 223M397 225L398 226L397 225M22 226L23 227L22 226M393 227L394 228L393 227M55 229L56 230L55 229M389 229L390 230L389 229M428 230L429 231L428 230M53 231L54 232L53 231M68 231L69 232L68 231M385 231L386 232L385 231M20 232L21 233L20 232M473 232L474 233L473 232M72 233L73 234L72 233M381 233L382 234L381 233M422 234L423 235L422 234M477 234L478 235L477 234M76 235L77 236L76 235M420 236L421 237L420 236M479 236L480 237L479 236M80 237L81 238L80 237M418 238L419 239L418 238M481 238L482 239L481 238M84 239L85 240L84 239M416 240L417 241L416 240M483 240L484 241L483 240M88 241L89 242L88 241M367 241L368 242L367 241M414 242L415 243L414 242M485 242L486 243L485 242M92 243L93 244L92 243M363 243L364 244L363 243M412 244L413 245L412 244M359 245L360 246L359 245M355 247L356 248L355 247M410 248L411 249L410 248M489 248L490 249L489 248M351 249L352 250L351 249M106 251L107 252L106 251M347 251L348 252L347 251M408 252L409 253L408 252M110 253L111 254L110 253M343 253L344 254L343 253M114 255L115 256L114 255M339 255L340 256L339 255M118 257L119 258L118 257M335 257L336 258L335 257z"/>
<path style="fill:#010101; stroke:none;" d="M446.996 257.773C429.809 263.341 437.186 287.677 454.7 282.526C469.696 278.116 461.165 253.183 446.996 257.773z"/>
<path style="fill:#ffffff; stroke:none;" d="M122 259L123 260L122 259M331 259L332 260L331 259M447 259L448 260L447 259M452 259L453 260L452 259M126 261L127 262L126 261M443 261L444 262L443 261M456 261L457 262L456 261M130 263L131 264L130 263M441 263L442 264L441 263M458 263L459 264L458 263M439 265L440 266L439 265M49 266L50 267L49 266M317 267L318 268L317 267M460 267L461 268L460 267M313 269L314 270L313 269M144 271L145 272L144 271M309 271L310 272L309 271M51 272L52 273L51 272M148 273L149 274L148 273M305 273L306 274L305 273M460 274L461 275L460 274M152 275L153 276L152 275M301 275L302 276L301 275M156 277L157 278L156 277M297 277L298 278L297 277M441 278L442 279L441 278M22 279L23 280L22 279M160 279L161 280L160 279M293 279L294 280L293 279M454 280L455 281L454 280M164 281L165 282L164 281M289 281L290 282L289 281M493 281L494 282L493 281M168 283L169 284L168 283M285 283L286 284L285 283M57 284L58 285L57 284M24 285L25 286L24 285M172 285L173 286L172 285M281 285L282 286L281 285M396 288L397 289L396 288M61 290L62 291L61 290M392 290L393 291L392 290M182 291L183 292L182 291M63 292L64 293L63 292M388 292L389 293L388 292M186 293L187 294L186 293M267 293L268 294L267 293M67 294L68 295L67 294M384 294L385 295L384 294M190 295L191 296L190 295M263 295L264 296L263 295M487 295L488 296L487 295M380 296L381 297L380 296M30 297L31 298L30 297M194 297L195 298L194 297M259 297L260 298L259 297M73 298L74 299L73 298M376 298L377 299L376 298M198 299L199 300L198 299M255 299L256 300L255 299M77 300L78 301L77 300M32 301L33 302L32 301M202 301L203 302L202 301M251 301L252 302L251 301M483 301L484 302L483 301M81 302L82 303L81 302M34 303L35 304L34 303M206 303L207 304L206 303M247 303L248 304L247 303M481 303L482 304L481 303M85 304L86 305L85 304M366 304L367 305L366 304M210 305L211 306L210 305M243 305L244 306L243 305M89 306L90 307L89 306M362 306L363 307L362 306M36 307L37 308L36 307M214 307L215 308L214 307M239 307L240 308L239 307M475 307L476 308L475 307M93 308L94 309L93 308M358 308L359 309L358 308M38 309L39 310L38 309M218 309L219 310L218 309M419 309L420 310L419 309M426 309L427 310L426 309M473 309L474 310L473 309M97 310L98 311L97 310M354 310L355 311L354 310M40 311L41 312L40 311M415 311L416 312L415 311M430 311L431 312L430 311M469 311L470 312L469 311M350 312L351 313L350 312M42 313L43 314L42 313M411 313L412 314L411 313M346 314L347 315L346 314M44 315L45 316L44 315M107 316L108 317L107 316M46 317L47 318L46 317M111 318L112 319L111 318M401 319L402 320L401 319M115 320L116 321L115 320M52 321L53 322L52 321M397 321L398 322L397 321M119 322L120 323L119 322M332 322L333 323L332 322M56 323L57 324L56 323M393 323L394 324L393 323M123 324L124 325L123 324M328 324L329 325L328 324M60 325L61 326L60 325M389 325L390 326L389 325M127 326L128 327L127 326M324 326L325 327L324 326M64 327L65 328L64 327M385 327L386 328L385 327M131 328L132 329L131 328M320 328L321 329L320 328M68 329L69 330L68 329M135 330L136 331L135 330M316 330L317 331L316 330M312 332L313 333L312 332M375 333L376 334L375 333M371 335L372 336L371 335M145 336L146 337L145 336M367 337L368 338L367 337M149 338L150 339L149 338M302 338L303 339L302 338M363 339L364 340L363 339M153 340L154 341L153 340M298 340L299 341L298 340M90 341L91 342L90 341M157 342L158 343L157 342M214 342L215 343L214 342M251 342L252 343L251 342M294 342L295 343L294 342M94 343L95 344L94 343M161 344L162 345L161 344M210 344L211 345L210 344M255 344L256 345L255 344M290 344L291 345L290 344M98 345L99 346L98 345M353 345L354 346L353 345M165 346L166 347L165 346M206 346L207 347L206 346M286 346L287 347L286 346M102 347L103 348L102 347M349 347L350 348L349 347M169 348L170 349L169 348M204 348L205 349L204 348M261 348L262 349L261 348M282 348L283 349L282 348M106 349L107 350L106 349M345 349L346 350L345 349M202 350L203 351L202 350M263 350L264 351L263 350M110 351L111 352L110 351M341 351L342 352L341 351M200 352L201 353L200 352M265 352L266 353L265 352M114 353L115 354L114 353M337 353L338 354L337 353M198 354L199 355L198 354M267 354L268 355L267 354M272 354L273 355L272 354M118 355L119 356L118 355M183 356L184 357L183 356M196 356L197 357L196 356M122 357L123 358L122 357M331 357L332 358L331 357M187 358L188 359L187 358M126 359L127 360L126 359M327 359L328 360L327 359M191 360L192 361L191 360M194 360L195 361L194 360M130 361L131 362L130 361M323 361L324 362L323 361M134 363L135 364L134 363M319 363L320 364L319 363M315 365L316 366L315 365z"/>
<path style="fill:#010101; stroke:none;" d="M227.439 371.857C212.197 379.097 223.042 402.737 238.192 395.576C252.61 388.762 242.581 364.665 227.439 371.857z"/>
<path style="fill:#ffffff; stroke:none;" d="M305 371L306 372L305 371M152 373L153 374L152 373M301 373L302 374L301 373M156 375L157 376L156 375M225 375L226 376L225 375M240 375L241 376L240 375M297 375L298 376L297 375M160 377L161 378L160 377M223 377L224 378L223 377M242 377L243 378L242 377M293 377L294 378L293 377M164 379L165 380L164 379M289 379L290 380L289 379M168 381L169 382L168 381M172 383L173 384L172 383M283 383L284 384L283 383M221 384L222 385L221 384M176 385L177 386L176 385M279 385L280 386L279 385M180 387L181 388L180 387M184 389L185 390L184 389M223 390L224 391L223 390M188 391L189 392L188 391M225 392L226 393L225 392M240 392L241 393L240 392M229 394L230 395L229 394M236 394L237 395L236 394M190 399L191 400L190 399M275 399L276 400L275 399M192 403L193 404L192 403M273 403L274 404L273 403M194 407L195 408L194 407M271 407L272 408L271 407M196 411L197 412L196 411M198 413L199 414L198 413M267 413L268 414L267 413M200 415L201 416L200 415M265 415L266 416L265 415M202 417L203 418L202 417M263 417L264 418L263 417M204 419L205 420L204 419M261 419L262 420L261 419M208 421L209 422L208 421M257 421L258 422L257 421M210 423L211 424L210 423z"/>
</svg>
